PathFileType	4	(X/Y/Z)	Walk3.trc
DataRate	CameraRate	NumFrames	NumMarkers	Units	OrigDataRate	OrigDataStartFrame	OrigNumFrames
200.000000	200.000000	6	56	mm	200.000000	384	604
Frame#	Times		RFA1		RUA1		RACR1		LFA1		RBHD		RASI		C7		RTH2		RTH3		RElbow		LElbowM		RTB1		RTB3		RWRU		RTH4		RLFC		RTH1		LACR1		RTB2		RMT1		RCAR		RMT5		RTB4		LElbow		LTH2		LTH3		LTH4		LWRU		LPSI		RPSI		LTB1		LLFC		T10		RWRR		LTH1		LBHD		LWRR		LTB3		LTB2		LFHD		LMT1		RBack		LCAL		LTB4		LLMAL		CLAV		LMMAL		RElbowM		LToe		LMT5		RMMAL		RLMAL		LCAR		LUA1		RCAL		RToe
			X1	Y1	Z1	X2	Y2	Z2	X3	Y3	Z3	X4	Y4	Z4	X5	Y5	Z5	X6	Y6	Z6	X7	Y7	Z7	X8	Y8	Z8	X9	Y9	Z9	X10	Y10	Z10	X11	Y11	Z11	X12	Y12	Z12	X13	Y13	Z13	X14	Y14	Z14	X15	Y15	Z15	X16	Y16	Z16	X17	Y17	Z17	X18	Y18	Z18	X19	Y19	Z19	X20	Y20	Z20	X21	Y21	Z21	X22	Y22	Z22	X23	Y23	Z23	X24	Y24	Z24	X25	Y25	Z25	X26	Y26	Z26	X27	Y27	Z27	X28	Y28	Z28	X29	Y29	Z29	X30	Y30	Z30	X31	Y31	Z31	X32	Y32	Z32	X33	Y33	Z33	X34	Y34	Z34	X35	Y35	Z35	X36	Y36	Z36	X37	Y37	Z37	X38	Y38	Z38	X39	Y39	Z39	X40	Y40	Z40	X41	Y41	Z41	X42	Y42	Z42	X43	Y43	Z43	X44	Y44	Z44	X45	Y45	Z45	X46	Y46	Z46	X47	Y47	Z47	X48	Y48	Z48	X49	Y49	Z49	X50	Y50	Z50	X51	Y51	Z51	X52	Y52	Z52	X53	Y53	Z53	X54	Y54	Z54	X55	Y55	Z55	X56	Y56	Z56

384	1.92	59.399	980.03	599.4	-36.628	1216.5	546.38	-24.218	1399.3	449.53	-144.38	988.9	-4.9228	-73.743	1579.3	379.19	-21.322	946.87	439.44	-104.44	1447.3	313.77	-40.518	647.97	434.32	-118.75	557.98	455.96	-49.098	1088.3	591.63	-227.37	1125.2	122.38	-134.47	360.33	351.24	-188.28	177.77	346.27	117.2	865.81	583.77	-102.91	649.21	473.4	-141.02	454.36	437.94	-89.972	743.62	482.54	-89.901	1436.3	132.83	-163.76	266.93	422.99	-122.18	36.263	301.25	182.92	846.6	585.29	-146.37	32.776	392.25	-158.49	270.64	350.65	-219.46	1125.6	43.099	80.599	708.31	115.85	60.852	593.81	107.3	15.734	670.91	92.785	-160.1	870.28	4.905	-202.65	968.06	234.32	-201.64	973.28	339.01	149.16	400.99	176.42	94.708	487.78	124.65	-206.7	1139.8	296.15	171.91	905.97	545.03	-30.849	757.25	90.359	-77.81	1586.3	240.73	-82.288	886.89	23.961	127.55	217.2	193.23	96.379	307.85	125.01	105.6	1610.8	260.13	220.28	62.647	227.7	-166.25	1352	416.49	18.223	49.164	235.45	136.37	309.15	185.56	53.43	93.679	180.61	25.86	1364.7	281.35	99.54	113.69	258.43	-71.068	1048.4	503.05	254.97	75.81	200.92	184.79	53.048	153.59	-245.57	98.871	301.49	-264.31	85.731	391.26	-90.135	832.78	-22.358	-169.59	1248.8	48.249	-322.99	41.635	353.5	-65.484	26.27	319.77
385	1.925	69.341	981.35	599.2	-29.315	1216	546.3	-17.278	1398.6	449.07	-140.23	987.3	-5.1708	-67.316	1578.4	378.13	-15.15	945.78	439.24	-97.726	1446.3	312.78	-36.253	646.86	434	-114.99	557.53	455.62	-40.64	1087.9	591.8	-221.16	1124.2	122.61	-132.69	359.81	351.22	-187.31	177.56	346.29	128.81	868.05	582.96	-98.469	648.62	473.07	-138.02	454.22	437.66	-84.537	742.96	482.01	-83.365	1435.1	132	-161.57	266.36	422.75	-122.1	36.257	301.24	194.91	850.35	584.2	-146.34	32.744	392.16	-156.83	270.03	350.39	-213.69	1124.7	43.266	87.079	707.31	115.73	67.19	592.74	107.39	22.386	669.9	92.396	-156.8	868.92	4.6146	-196.26	967.02	233.52	-195.25	972.29	338.34	157.27	401.33	176.13	100.12	486.28	124.97	-199.86	1138.9	295.51	182.68	909.17	544.29	-24.111	756.42	89.682	-71.505	1584.9	239.85	-78.491	884.8	23.082	143.32	216.69	192.03	108.17	306.4	124.36	111.68	1610.2	258.89	242.55	65.094	226.11	-159.26	1351.2	416.08	40.71	44.68	233.9	148.36	308.9	184.91	74.206	90.378	179	32.476	1363.6	280.83	119.74	111.88	256.69	-62.755	1047.7	503.44	276.87	78.967	199.45	207.21	54.006	152.13	-245.12	98.949	301.6	-263.99	86.139	391.14	-87.493	830.71	-23.065	-163.71	1247.5	47.966	-322.95	42.144	353.59	-65.36	26.112	319.81
386	1.93	79.229	982.71	599.05	-21.876	1215.6	546.08	-10.4	1397.7	448.39	-135.78	985.79	-5.4318	-60.994	1577.4	377.03	-8.9531	944.78	438.82	-91.158	1445.3	311.97	-31.617	645.76	433.59	-111.19	557.13	455.34	-32.231	1087.4	591.99	-214.77	1122.9	122.75	-130.32	359.3	350.91	-186.17	177.35	346.3	140.43	870.29	582.34	-93.665	647.97	472.69	-134.81	453.95	437.37	-79.203	742.06	481.85	-76.641	1433.7	131.61	-159.59	266	422.76	-122.05	36.173	301.18	206.81	853.74	583.49	-146.31	32.734	392.16	-155.31	269.61	350.56	-207.84	1123.5	43.467	93.284	705.97	115.72	73.548	591.64	107.38	29.081	668.88	91.888	-153.52	867.31	4.1933	-189.66	965.95	232.83	-188.79	971.16	337.59	164.99	401.82	175.77	105.39	484.67	125.14	-193.31	1138	294.73	193.32	912.49	543.58	-17.631	755.32	88.912	-65.313	1583.4	239.03	-74.983	882.43	22.397	158.65	216.46	190.68	119.85	305.21	123.77	118.01	1609.5	257.61	264.17	67.979	224.82	-152.49	1350.3	415.36	62.78	40.936	231.88	160.2	308.96	184.01	94.659	87.756	177.26	39.403	1362.6	280.27	139.13	110.45	254.98	-54.313	1047.1	503.82	298.55	82.373	198.15	229.36	55.37	150.69	-244.69	99.179	301.54	-263.38	86.689	391.05	-84.807	828.66	-23.892	-157.48	1246.2	47.823	-322.9	42.521	353.71	-65.334	26.044	319.68
387	1.935	88.963	983.98	598.75	-14.692	1215.3	545.87	-3.6378	1397.1	447.59	-131.58	984.29	-5.8473	-54.723	1576.4	376.08	-2.7149	943.68	438.47	-84.286	1444.3	311.26	-27.07	644.57	433.25	-107.41	556.62	455.06	-23.869	1087.1	591.93	-208.31	1121.9	122.73	-128.07	358.79	350.76	-185.18	177.25	346.17	151.82	872.71	581.64	-89.241	647.32	472.31	-131.65	453.58	437.05	-74.175	741.44	481.51	-69.865	1432.4	130.89	-157.96	265.67	422.9	-122.05	36.144	301.13	218.72	857.09	582.48	-146.22	32.74	392.13	-153.91	269.33	350.34	-202.02	1122.5	43.429	99.531	704.39	115.72	79.33	590.26	107.55	35.223	667.74	91.573	-150.12	865.99	4.097	-183.02	964.69	231.85	-182.62	970.27	336.44	172.61	401.99	175.7	110.79	482.88	125.44	-186.71	1136.9	293.88	204.19	915.79	542.8	-10.704	754.36	88.196	-59.061	1581.9	237.67	-71.295	880.02	21.837	173.92	216.52	189.42	131.4	303.97	123.1	124.52	1608.7	256.51	285.52	71.01	223.42	-145.59	1349.4	415.05	84.583	37.928	230	171.64	309.2	183.15	114.9	85.53	175.48	45.976	1361.5	279.66	158.51	109.41	253.24	-45.646	1046.4	504.05	319.77	85.865	197.07	250.95	57.099	149.07	-244.32	99.462	301.52	-262.86	87.181	391.04	-81.938	826.66	-24.84	-150.91	1245	47.687	-322.86	43.146	353.7	-65.257	26.014	319.75
388	1.94	98.814	985.19	598.33	-7.3797	1214.7	545.78	2.8948	1396.4	446.95	-126.83	982.62	-6.2628	-48.278	1575.3	375.02	3.761	942.68	438.05	-77.695	1443.2	310.76	-22.507	643.61	432.89	-103.27	556.11	454.74	-15.941	1086.9	592.07	-202.04	1120.9	122.94	-125.85	358.37	350.44	-184.4	177.27	345.58	163.4	874.8	580.96	-84.465	646.7	472.02	-128.59	453.27	436.71	-68.643	740.69	481.16	-63.215	1431.1	130.34	-156.43	265.83	422.74	-121.97	36.118	301.09	230.47	860.38	581.55	-146.19	32.71	392.07	-151.95	269.11	350.02	-196.09	1121.4	43.765	105.72	702.69	115.79	85.055	588.75	107.61	41.354	666.36	91.222	-146.35	864.51	3.929	-176.54	963.77	230.84	-176.14	969.17	335.51	180.45	402.17	175.56	116.31	480.82	126.01	-180.1	1136.1	293.06	214.63	918.96	542.04	-3.6779	753.1	87.33	-52.348	1580.7	236.48	-67.525	877.88	20.957	188.74	216.91	187.97	142.63	303.19	122.37	130.63	1607.8	255.25	306.11	74.264	222.31	-138.93	1348.7	414.62	106.07	35.5	227.84	182.91	309.41	182.36	135.01	83.958	173.65	52.862	1360.5	278.93	177.61	109.17	251.19	-37.023	1045.6	504.28	340.39	89.86	195.84	272.1	59.123	147.86	-243.99	99.854	301.44	-262.55	87.654	391.04	-78.946	824.61	-25.609	-144.56	1243.6	47.419	-322.76	43.688	353.7	-65.142	25.971	319.7
389	1.945	108.46	986.36	598.16	-0.029099	1214.3	545.54	9.6773	1395.8	446.33	-122.32	981.07	-6.5665	-41.775	1574.5	373.69	10.483	941.52	437.56	-70.991	1442.1	310.12	-17.767	642.66	432.52	-99.165	555.55	454.27	-7.4238	1086.5	592.34	-195.83	1120.2	123.01	-123.47	357.9	350.1	-183.39	177.45	345.24	174.4	877.07	580.29	-79.676	646.12	471.62	-125.53	452.91	436.37	-63.377	739.92	480.69	-56.444	1429.8	129.63	-155.15	265.86	422.66	-121.92	36.111	301.04	241.75	863.51	580.64	-146.24	32.683	392.03	-150.44	268.84	349.88	-189.9	1120	43.973	112.09	700.79	115.93	90.737	586.84	107.81	47.575	664.81	90.912	-142.71	862.73	3.6932	-169.76	962.71	230	-169.47	968.1	334.84	187.83	402.61	175.33	121.77	478.94	126.19	-173.23	1135.2	292.2	224.96	922.08	541.48	2.6669	751.65	86.719	-45.955	1579.2	235.77	-63.79	875.79	19.961	203.4	217.47	186.81	153.76	302.37	121.74	136.8	1606.8	254.03	326.05	77.965	221.34	-132.04	1347.6	414.23	126.88	33.443	225.61	193.91	309.84	181.74	154.47	82.764	171.72	59.749	1359.4	278.31	196.09	109.17	249.61	-28.434	1044.9	504.37	360.33	93.794	195.04	292.58	61.569	146.65	-243.52	100.43	301.15	-262.13	87.996	390.84	-75.97	822.47	-26.606	-138.25	1242.4	47.213	-322.62	44.549	353.33	-65.038	25.92	319.64
